# xmcd CD database file
#
# Track frame offsets:
#	150
#	20850
#	52201
#	71181
#	84988
#	98006
#	117782
#	138713
#	160531
#	178464
#	199324
#	222384
#	248926
#	273401
#
# Disc length: 3971 seconds
#
# Revision: 1
# Processed by: cddbd v1.5.2PL0 Copyright (c) Steve Scherf et al.
# Submitted via: CDex 1.79
#
DISCID=db0f810e
DTITLE=Various Performers - Venus Jazz Bar ~Sexy and Sweet Lady Vocals
DYEAR=2014
DGENRE=Jazz
TTITLE0=Nicole Henry - Teach Me Tonight 
TTITLE1=Nicole Henry - Angel Eyes
TTITLE2=Nicki Parrott - Autumn In Rome
TTITLE3=Nicki Parrott - Don`t Smoke In Bed
TTITLE4=Sally Night - Our Love Is Here To Stay
TTITLE5=Sally Night - My Funny Valentine
TTITLE6=Alexis Cole - Cry Me A River 
TTITLE7=Alexis Cole - I've Got You Under My Skin
TTITLE8=Tessa Souter - Key Largo
TTITLE9=Tessa Souter - Slow Hot Wind
TTITLE10=Marilyn Scott - Autumn In New York
TTITLE11=Marilyn Scott - Every Time We Say Goodbye
TTITLE12=Simone - Moon Glow
TTITLE13=Simone - The Very Thought Of You
EXTD=YEAR: 2014
EXTT0=
EXTT1=
EXTT2=
EXTT3=
EXTT4=
EXTT5=
EXTT6=
EXTT7=
EXTT8=
EXTT9=
EXTT10=
EXTT11=
EXTT12=
EXTT13=
PLAYORDER=
